<svg xmlns="http://www.w3.org/2000/svg" viewBox="0 0 128 128" width="128" height="128">
  <defs>
    <clipPath id="t"><rect x="0" y="27" width="128" height="34" /></clipPath>
    <clipPath id="b"><rect x="0" y="67" width="128" height="34" /></clipPath>
  </defs>
  <rect width="128" height="128" rx="26" fill="#17161A" />
  <g fill="none" stroke-width="8" stroke-linecap="butt" stroke-linejoin="miter">
    <g clip-path="url(#t)">
  <path d="M35.744 27L35.744 61" stroke="#F2EDE3" />
  <path d="M35.744 31L49.244 31" stroke="#F2EDE3" />
  <path d="M49.244 31A6.5 6.5 0 0 1 49.244 44" stroke="#F2EDE3" />
  <path d="M35.744 44L49.244 44" stroke="#F2EDE3" />
  <path d="M68.744 22L92.744 66" stroke="#F2EDE3" />
  <path d="M92.744 22L68.744 66" stroke="#F2EDE3" />
    </g>
    <g clip-path="url(#b)">
  <path d="M24 67L24 101" stroke="#C8952F" />
  <path d="M24 97L45 97" stroke="#C8952F" />
  <path d="M68.608 75.277A6.5 6.5 0 1 0 62.5 84" stroke="#C8952F" />
  <path d="M62.5 84A6.5 6.5 0 1 1 56.392 92.723" stroke="#C8952F" />
  <path d="M84 67L84 101" stroke="#C8952F" />
  <path d="M84 71L97.5 71" stroke="#C8952F" />
  <path d="M97.5 71A6.5 6.5 0 0 1 97.5 84" stroke="#C8952F" />
  <path d="M84 84L97.5 84" stroke="#C8952F" />
    </g>
  </g>
</svg>
